<?xml version="1.0" standalone="no"?>
<!DOCTYPE svg PUBLIC "-//W3C//DTD SVG 20010904//EN"
 "http://www.w3.org/TR/2001/REC-SVG-20010904/DTD/svg10.dtd">
<svg version="1.0" xmlns="http://www.w3.org/2000/svg"
 width="437.000000pt" height="372.000000pt" viewBox="0 0 437.000000 372.000000"
 preserveAspectRatio="xMidYMid meet">

<g transform="translate(0.000000,372.000000) scale(0.100000,-0.100000)"
fill="#000000" stroke="none">
<path d="M2230 3694 c-110 -14 -274 -48 -340 -71 -226 -77 -399 -200 -635
-452 -203 -216 -283 -344 -332 -530 -35 -132 -42 -328 -18 -471 50 -300 204
-560 420 -709 277 -192 708 -250 1115 -151 357 88 613 264 821 565 121 175
184 319 220 500 21 103 18 378 -5 483 -53 248 -149 427 -312 581 -102 97 -243
172 -369 197 -44 9 -118 25 -165 36 -83 20 -313 33 -400 22z m515 -159 c26
-14 80 -52 119 -84 39 -31 115 -92 169 -135 110 -87 169 -157 227 -267 71
-137 85 -206 84 -424 0 -169 -3 -204 -28 -313 -29 -133 -73 -267 -113 -347
-85 -167 -354 -363 -633 -460 -151 -52 -276 -76 -425 -82 -430 -17 -748 137
-971 472 -40 61 -84 135 -98 165 -120 263 -67 598 145 921 96 146 200 236 406
352 171 97 327 147 592 191 200 34 189 33 342 35 128 1 139 0 184 -24z m410
-197 l40 -41 -42 34 c-24 19 -43 37 -43 42 0 12 4 9 45 -35z m-1780 -1788 c33
-25 92 -62 130 -83 39 -21 59 -35 45 -32 -80 21 -228 127 -320 230 -42 47 -41
47 20 -11 36 -33 92 -80 125 -104z"/>
<path d="M2673 2809 c-40 -26 -63 -93 -63 -187 0 -60 2 -66 35 -99 31 -31 40
-35 71 -30 81 13 125 77 125 182 0 130 -78 192 -168 134z"/>
<path d="M1609 2765 c-55 -30 -75 -150 -40 -249 29 -84 46 -99 100 -93 65 7
94 41 99 115 6 84 -18 160 -65 206 -41 39 -55 42 -94 21z"/>
<path d="M2523 2321 c-10 -10 -29 -38 -43 -61 -64 -110 -243 -201 -366 -186
-108 13 -168 52 -186 123 -8 33 -16 45 -34 49 -77 19 -65 -111 16 -179 69 -58
195 -90 299 -76 134 19 289 126 359 249 37 64 37 64 16 84 -21 21 -40 20 -61
-3z"/>
<path d="M809 900 c-86 -15 -152 -62 -185 -134 -47 -100 -23 -215 57 -278 19
-16 82 -44 138 -63 56 -19 115 -42 130 -51 88 -52 78 -181 -17 -237 -65 -38
-181 -21 -258 38 -46 35 -68 32 -94 -12 l-22 -38 33 -28 c82 -68 215 -100 321
-78 119 25 204 120 215 240 7 70 -8 120 -50 167 -35 41 -66 57 -203 108 -121
45 -159 77 -159 135 0 116 141 169 270 101 31 -16 63 -30 71 -30 13 0 54 55
54 73 0 12 -92 67 -130 76 -59 15 -123 19 -171 11z"/>
<path d="M3603 895 c-70 -49 -6 -165 74 -134 56 21 71 82 28 124 -28 29 -70
32 -102 10z"/>
<path d="M298 568 c-3 -316 -4 -335 -24 -373 -31 -60 -68 -77 -163 -76 l-78 1
-7 -42 c-4 -23 -3 -45 2 -50 5 -5 40 -12 78 -15 102 -8 175 15 235 75 75 76
79 98 79 484 l0 328 -59 0 -60 0 -3 -332z"/>
<path d="M1280 460 l0 -440 50 0 50 0 2 341 3 341 144 -259 c79 -142 151 -266
159 -275 9 -11 29 -18 48 -18 41 0 39 -3 204 300 67 124 126 229 131 235 5 5
9 -134 9 -328 l0 -337 55 0 55 0 -2 438 -3 437 -50 3 c-30 2 -57 -2 -66 -10
-15 -11 -286 -496 -320 -570 -12 -27 -17 -18 -174 262 -89 159 -168 296 -175
305 -8 10 -30 15 -66 15 l-54 0 0 -440z"/>
<path d="M3158 640 c-115 -34 -174 -163 -115 -250 28 -42 61 -62 168 -100 100
-36 134 -67 125 -114 -16 -83 -129 -105 -234 -46 -47 26 -65 22 -86 -18 -14
-28 -14 -29 26 -55 77 -50 214 -60 289 -22 77 39 110 90 111 172 1 88 -36 125
-172 173 -105 37 -134 58 -138 97 -2 24 4 36 28 57 41 34 110 35 182 4 l51
-22 24 30 23 29 -27 22 c-57 46 -178 66 -255 43z"/>
<path d="M4026 630 c-63 -25 -118 -79 -148 -144 -19 -43 -23 -68 -23 -156 0
-89 4 -113 24 -157 28 -62 92 -125 147 -144 93 -32 248 -4 304 56 21 22 21 24
5 49 -22 33 -30 33 -101 -5 -48 -25 -67 -30 -106 -26 -101 9 -161 93 -161 226
1 189 118 277 272 205 l55 -25 25 26 c33 32 23 50 -45 85 -66 34 -178 39 -248
10z"/>
<path d="M2360 422 c0 -249 9 -301 64 -355 74 -75 212 -73 307 3 l38 31 7 -28
c11 -52 12 -53 59 -53 l45 0 0 310 0 310 -55 0 -55 0 0 -224 0 -224 -41 -36
c-84 -71 -196 -69 -235 6 -15 28 -19 67 -22 256 l-4 222 -54 0 -54 0 0 -218z"/>
<path d="M3590 330 l0 -310 60 0 60 0 0 310 0 310 -60 0 -60 0 0 -310z"/>
</g>
</svg>
